<mxfile host="65bd71144e" modified="2020-11-10T03:53:01.153Z" agent="5.0 (Windows NT 10.0; Win64; x64) AppleWebKit/537.36 (KHTML, like Gecko) Code/1.51.0 Chrome/83.0.4103.122 Electron/9.3.3 Safari/537.36" version="13.6.5" etag="p4rMTChUnUj4_kk5F2xy">
    <diagram id="T9f9H5FXGqmOsRpDfJjg" name="Page-1">
        <mxGraphModel dx="552" dy="646" grid="1" gridSize="10" guides="1" tooltips="1" connect="1" arrows="1" fold="1" page="1" pageScale="1" pageWidth="850" pageHeight="1100" math="0" shadow="0">
            <root>
                <mxCell id="0"/>
                <mxCell id="1" parent="0"/>
                <mxCell id="3" value="&lt;h1&gt;Problem Domain&lt;/h1&gt;&lt;p&gt;&lt;ul&gt;&lt;li&gt;To write a function that takes in an array and reverses the order&lt;/li&gt;&lt;/ul&gt;&lt;/p&gt;" style="text;html=1;strokeColor=none;fillColor=none;spacing=5;spacingTop=-20;whiteSpace=wrap;overflow=hidden;rounded=0;" vertex="1" parent="1">
                    <mxGeometry x="5" y="190" width="230" height="120" as="geometry"/>
                </mxCell>
                <mxCell id="5" value="Input" style="text;html=1;strokeColor=none;fillColor=none;align=center;verticalAlign=middle;whiteSpace=wrap;rounded=0;" vertex="1" parent="1">
                    <mxGeometry x="100" y="400" width="40" height="20" as="geometry"/>
                </mxCell>
                <mxCell id="9" value="Output" style="text;html=1;strokeColor=none;fillColor=none;align=center;verticalAlign=middle;whiteSpace=wrap;rounded=0;" vertex="1" parent="1">
                    <mxGeometry x="100" y="450" width="40" height="20" as="geometry"/>
                </mxCell>
                <mxCell id="12" value="1" style="ellipse;whiteSpace=wrap;html=1;" vertex="1" parent="1">
                    <mxGeometry x="150" y="395" width="60" height="30" as="geometry"/>
                </mxCell>
                <mxCell id="13" value="3" style="ellipse;whiteSpace=wrap;html=1;" vertex="1" parent="1">
                    <mxGeometry x="250" y="395" width="60" height="30" as="geometry"/>
                </mxCell>
                <mxCell id="14" value="5" style="ellipse;whiteSpace=wrap;html=1;" vertex="1" parent="1">
                    <mxGeometry x="350" y="395" width="60" height="30" as="geometry"/>
                </mxCell>
                <mxCell id="15" value="7" style="ellipse;whiteSpace=wrap;html=1;" vertex="1" parent="1">
                    <mxGeometry x="440" y="395" width="60" height="30" as="geometry"/>
                </mxCell>
                <mxCell id="16" value="7" style="ellipse;whiteSpace=wrap;html=1;" vertex="1" parent="1">
                    <mxGeometry x="160" y="445" width="60" height="30" as="geometry"/>
                </mxCell>
                <mxCell id="17" value="5" style="ellipse;whiteSpace=wrap;html=1;" vertex="1" parent="1">
                    <mxGeometry x="250" y="440" width="60" height="30" as="geometry"/>
                </mxCell>
                <mxCell id="18" value="3" style="ellipse;whiteSpace=wrap;html=1;" vertex="1" parent="1">
                    <mxGeometry x="350" y="440" width="60" height="30" as="geometry"/>
                </mxCell>
                <mxCell id="19" value="1" style="ellipse;whiteSpace=wrap;html=1;" vertex="1" parent="1">
                    <mxGeometry x="440" y="445" width="60" height="30" as="geometry"/>
                </mxCell>
                <mxCell id="21" value="&lt;h1&gt;Algorithm&lt;/h1&gt;&lt;p&gt;&lt;/p&gt;&lt;ul&gt;&lt;li&gt;Create an array&lt;/li&gt;&lt;li&gt;Create a function called reverse array that takes an argument&lt;/li&gt;&lt;/ul&gt;&lt;p&gt;&lt;/p&gt;" style="text;html=1;strokeColor=none;fillColor=none;spacing=5;spacingTop=-20;whiteSpace=wrap;overflow=hidden;rounded=0;" vertex="1" parent="1">
                    <mxGeometry x="570" y="190" width="230" height="120" as="geometry"/>
                </mxCell>
            </root>
        </mxGraphModel>
    </diagram>
</mxfile>